<?xml version="1.0" encoding="utf-8"?>
<!-- Generator: Adobe Illustrator 22.0.1, SVG Export Plug-In . SVG Version: 6.00 Build 0)  -->
<svg version="1.1" id="Layer_1" xmlns="http://www.w3.org/2000/svg" xmlns:xlink="http://www.w3.org/1999/xlink" x="0px" y="0px"
	 viewBox="0 0 246.6 85.1" style="enable-background:new 0 0 246.6 85.1;" xml:space="preserve">
<style type="text/css">
	.st0{fill:none;stroke:#000000;stroke-width:0.25;stroke-miterlimit:10;}
	.st1{fill:none;stroke:#000000;stroke-width:0.2787;stroke-miterlimit:10;}
	.st2{fill:none;stroke:#000000;stroke-width:0.7618;stroke-miterlimit:10;}
	.st3{fill:#4D7FB8;}
</style>
<image style="display:none;overflow:visible;" width="1000" height="1000" xlink:href="../../../../Downloads/1000_F_241180477_vBXL8LEuc2qxv5Il2sIV6PpbBr4jD67z.jpg"  transform="matrix(0.139 0 0 0.139 22.0729 -19)">
</image>
<g>
	<path class="st0" d="M117.8,76.1C117.8,76.1,117.8,76.1,117.8,76.1"/>
	<path class="st1" d="M117.8,76.1C117.8,76.1,117.8,76.1,117.8,76.1"/>
	<path class="st0" d="M5.7,72.8C5.7,72.8,5.7,72.8,5.7,72.8"/>
	<path class="st1" d="M5.7,72.8C5.7,72.8,5.7,72.8,5.7,72.8"/>
	<g>
		<line class="st2" x1="13.5" y1="61.4" x2="13.4" y2="61.4"/>
		<line class="st2" x1="5.5" y1="74.6" x2="5.5" y2="74.6"/>
		<g>
			<g>
				<path class="st3" d="M67.3,72.9c2.4,2.3,5.4,4,8.7,4.8c1.5,0.4,3,0.6,4.6,0.6c0,0,0.1,0,0.1,0c0.1,0,0.2,0,0.3,0
					c0.6,0,1.2,0,1.7-0.1c0,0,0.1,0,0.2,0c3.4-0.3,6.5-1.5,9.1-3.3c0.9-0.6,1.8-1.3,2.6-2.1l31.1,1.6l-28,0.7
					c-1.4,1.6-2.9,3.1-4.8,4.3c-3.5,2.3-7.7,3.6-11.9,3.6c-5.8,0-11-2.3-14.8-6c-0.9,0-1.8,0-2.7-0.1c-1.2,0-2.4,0-3.7,0h-0.3
					c-19.3,0-38.1,2.4-56,6.9h0c-1.1,0.2-2.1,0.5-3.2,0.8l10.2-31.3L4.2,81.1c17.6-5.1,36.2-8,55.4-8.3c0.9,0,1.7,0,2.6,0
					c0.2,0,0.4,0,0.5,0s0.3,0,0.5,0C64.6,72.8,66,72.8,67.3,72.9z"/>
			</g>
			<path class="st3" d="M130,0.3c-17.8,0-34.1,6.6-46.5,17.5c-0.1,0.1-0.2,0.2-0.3,0.3c-0.8,0.7-1.5,1.3-2.2,2.1
				c-0.5-0.5-1.1-1-1.6-1.5C67.7,8,52.4,1.2,35.5,0.4c-1-0.1-2-0.1-3-0.1l-1.7,9.8c-0.9-0.1-1.8-0.2-2.7-0.2c-1.4,0-2.7,0.2-4,0.4
				c-0.6,0.2-1.3,0.3-1.9,0.5l-0.4,2.3l-5.6,32.5c0,0-0.2,1.2-0.2,1.3l-2.3,12.9c0,0-0.3,1.7-0.3,1.7l-1.2,7l-0.5,3.1
				c1-0.5,2-0.9,3.1-1.3c1.9-0.7,3.8-1.4,5.8-2c1-0.3,2.1-0.6,3.1-0.8c5.3-1.3,10.8-2,16.5-2c6.7,0,13.2,0.9,19.3,2.7
				c0.4,0.1,0.7,0.2,1.1,0.3c0.8,0.2,1.7,0.5,2.5,0.8c0.2,0.1,1.2,0.4,1.6,0.6c-1-0.7-16.1-12.5-39.7-11.4c0-0.3,9.9-55.2,9.9-55.2
				c16.9,0.7,32.8,7.9,44.6,18.4l0.2,3.7l0.6,13.2l1.2,27.8l0.7-20.5l0.1-1.8l0.5-14.9l0.1-3.1l0-0.9V25l0.1-2.7l0-0.5
				c0.1-0.1,0.2-0.2,0.2-0.3C95.8,8.8,112.9,0.8,131.9,0.4C131.3,0.3,130.6,0.3,130,0.3z M23.9,49.1l-0.3,1.7l-1.3,7.7L22,60.1
				c1-0.1,2-0.2,3-0.2c1-0.1,2.1-0.1,3.1-0.1c11.1,0,21.6,2.6,30.9,7.1c-6.7-2.2-13.9-3.3-21.4-3.3c-4.6,0-9.1,0.5-13.5,1.3
				c-1,0.2-2.1,0.4-3.1,0.7c-2,0.5-3.9,1-5.8,1.7l1-6.4l0.2-1.6l1.7-10.8l0.2-1.4l5.4-34.6c1.6-0.4,3.3-0.7,5.1-0.7
				c0.5,0,1.1,0,1.7,0.1L23.9,49.1z"/>
		</g>
		<g>
			<path d="M89.5,47.7v-1.2c1.4,0,2.3-0.1,2.7-0.3c0.2-0.1,0.3-0.2,0.4-0.4c0.1-0.3,0.2-1,0.3-2.1C93,42,93,40.5,93,39.3v-16
				c0-0.4,0-0.7-0.1-0.8c-0.1-0.2-0.3-0.5-0.7-0.8c-0.2-0.2-0.5-0.3-0.8-0.4c-0.3-0.1-1-0.1-2.1-0.1v-1.2c2.2,0.1,3.6,0.1,4.1,0.1
				c1,0,1.9,0,2.9-0.1c1.1,1.5,1.9,2.5,2.5,3.2l4.1,5l5.9,7.2c1.9,2.3,3.4,4.1,4.6,5.4c0.7,0.9,1.4,1.5,1.8,2V28.2
				c0-1.3,0-2.8-0.1-4.5c-0.1-1.1-0.1-1.8-0.3-2c-0.1-0.2-0.2-0.3-0.4-0.4c-0.4-0.2-1.3-0.3-2.7-0.3v-1.2c1.5,0.1,3.1,0.1,4.7,0.1
				c1.5,0,2.9,0,4.1-0.1V21c-1.4,0-2.3,0.1-2.7,0.3c-0.2,0.1-0.3,0.2-0.4,0.4c-0.1,0.2-0.2,0.9-0.3,2.1c-0.1,1.7-0.1,3.2-0.1,4.5
				v9.5c0,1.9,0,5.5,0.1,10.7l-2-0.6l-0.5-0.1c-0.1,0-0.2-0.1-0.2-0.1c-0.1-0.1-0.3-0.3-0.7-0.8c-1.1-1.2-1.9-2.2-2.4-2.8l-2.5-3.2
				l-14-16.7v15.1c0,1.3,0,2.8,0.1,4.5c0.1,1.1,0.1,1.8,0.3,2c0.1,0.2,0.2,0.3,0.4,0.4c0.4,0.2,1.3,0.3,2.7,0.3v1.2
				c-1.2-0.1-2.4-0.1-3.8-0.1C93,47.6,91.3,47.6,89.5,47.7z"/>
			<path d="M122.9,33.9c0-2.1,0.3-4,0.9-5.7c0.6-1.8,1.7-3.3,3.1-4.7c1.4-1.4,3.1-2.5,4.9-3.2c1.8-0.7,3.9-1.1,6.3-1.1
				c2.2,0,4.1,0.3,5.9,0.9c1.8,0.6,3.2,1.4,4.4,2.4c1.1,1,2,2.1,2.7,3.3c0.5,0.9,0.9,1.9,1.2,3.1c0.3,1.2,0.4,2.5,0.4,3.9
				c0,4.4-1.5,8.1-4.5,11c-3,2.9-6.7,4.4-11.2,4.4c-2.1,0-4-0.3-5.8-1c-1.8-0.7-3.3-1.7-4.5-3c-1.2-1.3-2.2-2.9-2.8-4.8
				S122.9,35.8,122.9,33.9z M127,32.3c0,1.2,0.1,2.5,0.4,3.8c0.2,1.3,0.6,2.4,0.9,3.3c0.6,1.6,1.5,2.9,2.5,4c1,1.1,2.2,1.9,3.4,2.4
				c1.3,0.5,2.6,0.8,4.2,0.8c2.1,0,3.9-0.5,5.5-1.5c1.6-1,2.7-2.5,3.5-4.4s1.2-4,1.2-6.5c0-2.1-0.3-4-0.8-5.8
				c-0.3-1.1-0.8-2.1-1.4-2.9c-0.6-0.9-1.2-1.6-2-2.3c-0.8-0.6-1.8-1.2-3-1.6c-1.2-0.4-2.6-0.7-4-0.7c-2.1,0-3.9,0.5-5.5,1.4
				c-1.6,0.9-2.8,2.3-3.6,4C127.4,28.1,127,30.1,127,32.3z"/>
			<path d="M154.9,46.8c0.2-1.3,0.3-3.3,0.4-6.1h1.3c0.1,1.9,0.2,3,0.3,3.4c0.2,0.3,0.5,0.7,1.1,1.1c0.6,0.4,1.4,0.7,2.3,1.1
				c1,0.3,1.9,0.5,2.8,0.5c1.3,0,2.5-0.3,3.7-0.9c1.1-0.6,1.9-1.4,2.4-2.4c0.5-1,0.8-2,0.8-3.2c0-0.9-0.1-1.6-0.4-2.2
				c-0.3-0.6-0.6-1.1-1.2-1.5c-0.5-0.4-1.2-0.7-1.9-0.8c-0.5-0.1-1.5-0.2-2.9-0.4c-1.5-0.2-2.7-0.4-3.7-0.6c-1.4-0.4-2.4-0.9-3-1.5
				c-0.6-0.6-1.2-1.3-1.6-2.2c-0.4-0.9-0.6-1.9-0.6-3c0-1.5,0.4-3,1.2-4.4c0.8-1.4,2-2.4,3.6-3.2c1.6-0.8,3.3-1.1,5.1-1.1
				c1.1,0,2.3,0.1,3.6,0.4c1.3,0.3,2.5,0.7,3.7,1.3c-0.2,0.8-0.3,1.6-0.4,2.3c-0.1,0.7-0.1,1.8-0.2,3.2h-1.3c0-2-0.1-3.1-0.2-3.3
				c-0.3-0.5-0.8-0.9-1.3-1.3c-1.4-0.8-2.8-1.1-4.2-1.1c-1.9,0-3.4,0.6-4.6,1.7c-1.1,1.2-1.7,2.7-1.7,4.5c0,1.1,0.2,2,0.6,2.6
				c0.4,0.6,1.1,1.1,2.2,1.5c0.7,0.2,1.9,0.5,3.5,0.7c1.6,0.2,3.1,0.4,4.4,0.7c1.2,0.4,2.1,0.8,2.7,1.3c0.6,0.5,1.1,1.2,1.5,2
				c0.4,0.8,0.6,1.8,0.6,2.9c0,2.6-1.1,4.9-3.2,6.8c-2.2,1.9-5,2.9-8.4,2.9C159.3,48.3,157,47.8,154.9,46.8z"/>
			<path d="M175.6,21v-1.3c0.5,0,1.3,0,2.3,0.1l3.8,0.1c0.7,0,1.9,0,3.5-0.1c2-0.1,3.2-0.1,3.6-0.1c2.5,0,4.3,0.2,5.5,0.7
				c1.1,0.4,2,1.2,2.7,2.2c0.6,1,0.9,2.1,0.9,3.3c0,1.1-0.3,2.2-0.9,3.3c-0.6,1.1-1.4,2-2.6,2.7c-1.1,0.7-2.6,1.3-4.4,1.7
				c0.3,0.5,1.1,1.5,2.3,3.1l5,6.5c1.4,1.8,2.2,2.8,2.5,3.1c0.1,0.1,0.2,0.2,0.4,0.2c0.2,0.1,0.6,0.1,1.3,0.1v1.3
				c-1-0.1-1.9-0.1-2.6-0.1c-0.8,0-1.7,0-2.9,0.1c-0.9-1-2.3-2.9-4.3-5.8c-1.1-1.6-2.1-2.9-3-4c-1.4-1.8-2.7-3.4-3.9-4.8l0.2-0.6
				c0.7,0,1.2,0.1,1.6,0.1c2.4,0,4.2-0.6,5.4-1.7c1.2-1.1,1.9-2.6,1.9-4.5c0-1.6-0.5-2.9-1.6-3.8c-1.1-0.9-2.7-1.4-4.8-1.4
				c-1.4,0-2.7,0.2-4,0.6c-0.1,0.7-0.1,1.4-0.1,2c0,0.2-0.1,2.1-0.1,5.7v8.7c0,1.8,0,3.5,0.1,5.2c0,1.2,0.1,2,0.3,2.2
				c0.2,0.2,0.4,0.4,0.7,0.5c0.3,0.1,1.3,0.2,2.8,0.2v1.3c-1.9-0.1-3.6-0.2-5.1-0.2c-1.3,0-3.4,0.1-6.4,0.2v-1.3
				c1.5,0,2.5-0.1,2.8-0.2c0.3-0.1,0.6-0.3,0.7-0.5c0.2-0.3,0.3-0.9,0.3-1.9c0-0.3,0-2.1,0.1-5.6v-9.1c0-1.8,0-3.5-0.1-5.2
				c0-1.2-0.1-2-0.3-2.2c-0.2-0.2-0.4-0.4-0.7-0.5C178.1,21.1,177.2,21.1,175.6,21z"/>
			<path d="M203.1,47.7v-1.2c1.4,0,2.3-0.1,2.7-0.3c0.2-0.1,0.3-0.2,0.4-0.4c0.1-0.3,0.2-1,0.3-2.1c0.1-1.7,0.1-3.2,0.1-4.5V29.2
				c0-1.8,0-3.5-0.1-5.2c0-1.2-0.1-2-0.3-2.2c-0.2-0.2-0.4-0.4-0.7-0.5c-0.3-0.1-1.3-0.2-2.8-0.2v-1.3l5.6,0.1l5.9-0.1
				c2.8,0,4.9-0.1,6.2-0.1c1.3,0,2.5,0.1,3.7,0.2c-0.2,0.7-0.4,1.4-0.4,1.9c0,0.1-0.1,1.5-0.4,4.1h-1.2c0-1.3-0.1-2.6-0.3-3.7
				c-0.7-0.3-1.5-0.5-2.4-0.6c-1.5-0.2-2.9-0.3-4.4-0.3c-0.3,0-1,0-2.1,0.1c-1.1,0.1-1.9,0.1-2.3,0.1c-0.1,1.5-0.1,2.8-0.1,4.1
				l-0.1,6.7c1.5,0.1,2.9,0.1,4.2,0.1c1.6,0,2.9-0.1,4-0.2c0.4-0.1,0.7-0.2,0.8-0.3s0.2-0.7,0.3-1.6l0.1-1.4h1.2v0.4l-0.1,4.1
				l0.1,4.6h-1.4l-0.1-1.3c0-1-0.1-1.6-0.3-1.8c-0.2-0.2-0.4-0.4-0.9-0.5c-0.7-0.2-2.2-0.2-4.4-0.2c-0.9,0-2.1,0-3.7,0.1
				c-0.1,1.3-0.1,3.3-0.1,5.8c0,2.4,0,4.3,0.1,5.5c1.9,0.1,4,0.2,6.4,0.2c1.7,0,2.9-0.1,3.6-0.2c0.7-0.1,1.4-0.3,2-0.5
				c0.2-0.4,0.3-1,0.5-1.7c0.3-1.2,0.5-2,0.6-2.6h1.3c-0.3,2.7-0.5,4.9-0.5,6.6c-1.1,0.2-2.5,0.3-4.1,0.3l-11.8-0.2
				C208.1,47.6,206.3,47.6,203.1,47.7z"/>
			<path d="M227.6,46.8c0.2-1.3,0.3-3.3,0.4-6.1h1.3c0.1,1.9,0.2,3,0.3,3.4c0.2,0.3,0.5,0.7,1.1,1.1c0.6,0.4,1.4,0.7,2.3,1.1
				c1,0.3,1.9,0.5,2.8,0.5c1.3,0,2.5-0.3,3.7-0.9c1.1-0.6,1.9-1.4,2.4-2.4c0.5-1,0.8-2,0.8-3.2c0-0.9-0.1-1.6-0.4-2.2
				c-0.3-0.6-0.6-1.1-1.2-1.5c-0.5-0.4-1.2-0.7-1.9-0.8c-0.5-0.1-1.5-0.2-2.9-0.4c-1.5-0.2-2.7-0.4-3.7-0.6c-1.4-0.4-2.4-0.9-3-1.5
				c-0.6-0.6-1.2-1.3-1.6-2.2c-0.4-0.9-0.6-1.9-0.6-3c0-1.5,0.4-3,1.2-4.4c0.8-1.4,2-2.4,3.6-3.2c1.6-0.8,3.3-1.1,5.1-1.1
				c1.1,0,2.3,0.1,3.7,0.4c1.3,0.3,2.6,0.7,3.7,1.3c-0.2,0.8-0.3,1.6-0.4,2.3c-0.1,0.7-0.1,1.8-0.2,3.2h-1.3c0-2-0.1-3.1-0.2-3.3
				c-0.3-0.5-0.8-0.9-1.3-1.3c-1.4-0.8-2.8-1.1-4.2-1.1c-1.9,0-3.4,0.6-4.6,1.7c-1.1,1.2-1.7,2.7-1.7,4.5c0,1.1,0.2,2,0.6,2.6
				c0.4,0.6,1.1,1.1,2.2,1.5c0.7,0.2,1.9,0.5,3.5,0.7c1.6,0.2,3.1,0.4,4.4,0.7c1.2,0.4,2.1,0.8,2.7,1.3c0.6,0.5,1.1,1.2,1.5,2
				c0.4,0.8,0.6,1.8,0.6,2.9c0,2.6-1.1,4.9-3.2,6.8c-2.2,1.9-5,2.9-8.4,2.9C232,48.3,229.7,47.8,227.6,46.8z"/>
		</g>
		<g>
			<path d="M163.1,74.6V74c0.5-0.2,0.8-0.4,0.8-0.5c0.1-0.1,0.1-0.2,0.1-0.3c0-0.2,0.1-0.8,0.1-1.5c0-0.8,0.1-1.4,0.1-1.8v-7.3
				c0-0.8,0-1.7-0.1-2.8c0-0.7-0.1-1.1-0.2-1.2c-0.1-0.1-0.1-0.2-0.3-0.2c-0.3-0.1-0.8-0.2-1.7-0.2v-0.8c0.3,0,0.6,0,1,0l2.5,0.1
				l4.5-0.1c1.2,0,2.1,0.1,2.7,0.4c0.6,0.2,1.1,0.6,1.5,1.2c0.4,0.5,0.5,1.2,0.5,1.8c0,0.5-0.1,1-0.3,1.5c-0.2,0.5-0.5,0.9-0.9,1.2
				c-0.4,0.3-0.8,0.6-1.2,0.8c-0.4,0.2-1,0.4-1.7,0.6c0.9,0.1,1.7,0.2,2.3,0.4c0.6,0.2,1.1,0.4,1.5,0.8c0.4,0.3,0.7,0.8,0.9,1.3
				c0.2,0.5,0.3,1,0.3,1.6c0,1.2-0.4,2.2-1.1,3.2c-0.7,0.9-1.7,1.6-2.8,2c-0.8,0.3-1.9,0.5-3,0.5l-3.5-0.1
				C164.9,74.5,164.2,74.5,163.1,74.6z M166.6,64.5c0.5,0,0.9,0,1.2,0c1,0,1.8-0.1,2.3-0.2c0.5-0.2,1-0.4,1.3-0.6
				c0.3-0.2,0.5-0.6,0.7-1c0.2-0.4,0.3-0.9,0.3-1.5c0-1-0.3-1.7-1-2.2c-0.6-0.4-1.6-0.7-2.8-0.7c-0.7,0-1.3,0.1-1.9,0.2
				c-0.1,0.7-0.1,1.7-0.1,3.1V64.5z M166.6,73.3c0.6,0.1,1.2,0.2,1.9,0.2c1.1,0,1.9-0.2,2.6-0.5c0.7-0.3,1.2-0.8,1.5-1.5
				c0.3-0.7,0.5-1.4,0.5-2.3c0-0.8-0.2-1.6-0.5-2.1c-0.3-0.6-0.8-1-1.5-1.3c-0.7-0.3-1.7-0.4-3.2-0.4c-0.3,0-0.8,0-1.3,0v4.6
				C166.6,70.6,166.6,71.6,166.6,73.3z"/>
			<path d="M177.5,66.1c0-1.3,0.2-2.5,0.6-3.5c0.4-1.1,1-2.1,1.9-2.9c0.9-0.9,1.9-1.5,3-2c1.1-0.4,2.4-0.7,3.9-0.7
				c1.3,0,2.5,0.2,3.6,0.6c1.1,0.4,2,0.9,2.7,1.5c0.7,0.6,1.2,1.3,1.7,2c0.3,0.6,0.6,1.2,0.7,1.9c0.2,0.7,0.3,1.5,0.3,2.4
				c0,2.7-0.9,5-2.7,6.8c-1.8,1.8-4.1,2.7-6.9,2.7c-1.3,0-2.5-0.2-3.6-0.6c-1.1-0.4-2-1-2.8-1.8c-0.8-0.8-1.3-1.8-1.7-3
				C177.7,68.4,177.5,67.2,177.5,66.1z M180.1,65.1c0,0.8,0.1,1.5,0.2,2.3c0.2,0.8,0.3,1.5,0.6,2c0.4,1,0.9,1.8,1.5,2.4
				c0.6,0.7,1.3,1.1,2.1,1.5c0.8,0.3,1.6,0.5,2.6,0.5c1.3,0,2.4-0.3,3.4-1c1-0.6,1.7-1.5,2.1-2.7c0.5-1.2,0.7-2.5,0.7-4
				c0-1.3-0.2-2.5-0.5-3.6c-0.2-0.7-0.5-1.3-0.8-1.8c-0.3-0.5-0.8-1-1.2-1.4c-0.5-0.4-1.1-0.7-1.9-1c-0.8-0.3-1.6-0.4-2.5-0.4
				c-1.3,0-2.4,0.3-3.4,0.9c-1,0.6-1.7,1.4-2.2,2.5C180.3,62.5,180.1,63.7,180.1,65.1z"/>
			<path d="M197,66.1c0-1.3,0.2-2.5,0.6-3.5c0.4-1.1,1-2.1,1.9-2.9c0.9-0.9,1.9-1.5,3-2s2.4-0.7,3.9-0.7c1.3,0,2.5,0.2,3.6,0.6
				c1.1,0.4,2,0.9,2.7,1.5c0.7,0.6,1.2,1.3,1.7,2c0.3,0.6,0.6,1.2,0.7,1.9c0.2,0.7,0.3,1.5,0.3,2.4c0,2.7-0.9,5-2.7,6.8
				c-1.8,1.8-4.1,2.7-6.9,2.7c-1.3,0-2.5-0.2-3.6-0.6c-1.1-0.4-2-1-2.8-1.8c-0.8-0.8-1.3-1.8-1.7-3C197.2,68.4,197,67.2,197,66.1z
				 M199.6,65.1c0,0.8,0.1,1.5,0.2,2.3c0.2,0.8,0.3,1.5,0.6,2c0.4,1,0.9,1.8,1.5,2.4c0.6,0.7,1.3,1.1,2.1,1.5
				c0.8,0.3,1.6,0.5,2.6,0.5c1.3,0,2.4-0.3,3.4-1c1-0.6,1.7-1.5,2.1-2.7c0.5-1.2,0.7-2.5,0.7-4c0-1.3-0.2-2.5-0.5-3.6
				c-0.2-0.7-0.5-1.3-0.8-1.8c-0.3-0.5-0.8-1-1.2-1.4c-0.5-0.4-1.1-0.7-1.9-1c-0.8-0.3-1.6-0.4-2.5-0.4c-1.3,0-2.4,0.3-3.4,0.9
				c-1,0.6-1.7,1.4-2.2,2.5C199.8,62.5,199.6,63.7,199.6,65.1z"/>
			<path d="M223.7,73.8v0.8l-3.7-0.1c-0.2,0-1.4,0-3.4,0.1v-0.8c1,0,1.5-0.1,1.7-0.1s0.4-0.2,0.4-0.3c0.1-0.2,0.2-0.6,0.2-1.2
				c0-0.2,0-1.3,0-3.4v-5.6c0-1.1,0-2.2,0-3.2c0-0.8-0.1-1.2-0.2-1.4c-0.1-0.1-0.2-0.2-0.4-0.3c-0.2-0.1-0.8-0.1-1.8-0.1v-0.8
				c1.6,0,2.8,0.1,3.6,0.1c0.8,0,2,0,3.5-0.1v0.8c-1,0-1.5,0.1-1.7,0.1c-0.2,0.1-0.4,0.2-0.4,0.3c-0.1,0.2-0.2,0.6-0.2,1.2
				c0,0.2,0,1.3,0,3.4v2.5c0.4-0.2,1-0.6,1.6-1.2l1.5-1.5l2.7-2.7c1-1,1.7-1.7,1.9-2v-0.9c1,0,1.7,0,2.3,0c0.6,0,1.2,0,1.9,0v0.8
				c-0.8,0-1.3,0-1.5,0.1c-0.3,0.1-0.5,0.2-0.8,0.4c-0.5,0.4-1.3,1.1-2.4,2l-4.8,4.4l7.3,6.8c1.2,1.1,1.8,1.7,2,1.8
				c0.2,0.1,0.5,0.1,0.9,0.2v0.7c-0.8,0-1.3,0-1.6,0c-0.3,0-0.9,0-1.9,0c-0.2-0.2-0.9-0.8-2-2l-1.2-1.2l-5.5-5.2l-0.3,0.2v2.4
				c0,1.1,0,2.2,0,3.2c0,0.8,0.1,1.2,0.2,1.4c0.1,0.1,0.2,0.3,0.5,0.3C222.1,73.8,222.7,73.8,223.7,73.8z"/>
			<path d="M234.8,74c0.1-0.8,0.2-2,0.2-3.8h0.8c0,1.2,0.1,1.9,0.2,2.1c0.1,0.2,0.3,0.4,0.7,0.7c0.4,0.2,0.8,0.5,1.4,0.6
				c0.6,0.2,1.2,0.3,1.7,0.3c0.8,0,1.6-0.2,2.3-0.6s1.2-0.9,1.5-1.5c0.3-0.6,0.5-1.3,0.5-2c0-0.5-0.1-1-0.2-1.4
				c-0.2-0.4-0.4-0.7-0.7-0.9c-0.3-0.2-0.7-0.4-1.2-0.5c-0.3-0.1-0.9-0.1-1.8-0.2c-0.9-0.1-1.7-0.2-2.3-0.4
				c-0.8-0.3-1.5-0.6-1.9-0.9c-0.4-0.3-0.7-0.8-1-1.4c-0.2-0.6-0.4-1.2-0.4-1.8c0-1,0.2-1.9,0.7-2.7c0.5-0.8,1.2-1.5,2.2-2
				c1-0.5,2-0.7,3.2-0.7c0.7,0,1.4,0.1,2.2,0.3c0.8,0.2,1.6,0.5,2.3,0.8c-0.1,0.5-0.2,1-0.2,1.4c-0.1,0.4-0.1,1.1-0.1,1.9h-0.8
				c0-1.2-0.1-1.9-0.1-2c-0.2-0.3-0.5-0.6-0.8-0.8c-0.8-0.5-1.7-0.7-2.6-0.7c-1.2,0-2.1,0.4-2.8,1.1c-0.7,0.7-1,1.6-1,2.8
				c0,0.7,0.1,1.2,0.4,1.6c0.2,0.4,0.7,0.7,1.3,0.9c0.4,0.2,1.2,0.3,2.2,0.4c1,0.1,1.9,0.3,2.7,0.4c0.8,0.2,1.3,0.5,1.7,0.8
				c0.4,0.3,0.7,0.7,0.9,1.2c0.2,0.5,0.4,1.1,0.4,1.8c0,1.6-0.7,3-2,4.2c-1.3,1.2-3.1,1.8-5.2,1.8C237.5,74.9,236.1,74.6,234.8,74z"
				/>
		</g>
	</g>
</g>
<g>
</g>
<g>
</g>
<g>
</g>
<g>
</g>
<g>
</g>
<g>
</g>
</svg>
